STARTFONT 2.1
FONT -FreeType-Seven Segment-Medium-R-Normal--36-260-100-100-P-119-ISO10646-1
SIZE 26 100 100
FONTBOUNDINGBOX 82 36 0 -5
COMMENT "Generated by fontforge, http://fontforge.sourceforge.net"
COMMENT ""
COMMENT "Converted from OpenType font "7segment.ttf" by "otf2bdf 3.0"."
COMMENT ""
STARTPROPERTIES 19
FOUNDRY "FreeType"
FAMILY_NAME "Seven Segment"
WEIGHT_NAME "Medium"
SLANT "R"
SETWIDTH_NAME "Normal"
ADD_STYLE_NAME ""
PIXEL_SIZE 36
POINT_SIZE 260
RESOLUTION_X 100
RESOLUTION_Y 100
SPACING "P"
AVERAGE_WIDTH 119
CHARSET_REGISTRY "ISO10646"
CHARSET_ENCODING "1"
FONT_ASCENT 31
FONT_DESCENT 6
COPYRIGHT "-FreeType-Seven Segment-Medium-R-Normal--36-260-100-100-P-119-ISO10646-1"
_OTF_FONTFILE "7segment.ttf"
_OTF_PSNAME "SevenSegmentRegular"
ENDPROPERTIES
CHARS 164
STARTCHAR $0000
ENCODING 0
SWIDTH 0 0
DWIDTH 0 0
BBX 0 0 0 0
BITMAP
ENDCHAR
STARTCHAR $000A
ENCODING 10
SWIDTH 470 0
DWIDTH 17 0
BBX 0 0 0 0
BITMAP
ENDCHAR
STARTCHAR $000D
ENCODING 13
SWIDTH 470 0
DWIDTH 17 0
BBX 0 0 0 0
BITMAP
ENDCHAR
STARTCHAR $0020
ENCODING 32
SWIDTH 304 0
DWIDTH 11 0
BBX 0 0 0 0
BITMAP
ENDCHAR
STARTCHAR $0021
ENCODING 33
SWIDTH 193 0
DWIDTH 7 0
BBX 2 25 2 0
BITMAP
40
C0
C0
C0
C0
C0
C0
C0
C0
C0
C0
C0
C0
C0
C0
C0
C0
C0
C0
C0
00
00
C0
C0
40
ENDCHAR
STARTCHAR $0022
ENCODING 34
SWIDTH 276 0
DWIDTH 10 0
BBX 6 3 2 22
BITMAP
48
CC
48
ENDCHAR
STARTCHAR $0023
ENCODING 35
SWIDTH 553 0
DWIDTH 20 0
BBX 14 17 3 0
BITMAP
0110
0338
0338
0730
0670
FFFC
FFFC
0CE0
1CC0
18C0
FFFC
FFFC
3380
7300
7300
6700
6200
ENDCHAR
STARTCHAR $0024
ENCODING 36
SWIDTH 498 0
DWIDTH 18 0
BBX 14 31 2 -3
BITMAP
0300
0300
0300
3FF0
3FF0
C000
C000
C000
C000
C000
C000
C000
C000
C000
3FF0
3FF0
000C
000C
000C
000C
000C
000C
000C
000C
000C
000C
3FF0
3FF0
0300
0300
0300
ENDCHAR
STARTCHAR $0025
ENCODING 37
SWIDTH 692 0
DWIDTH 25 0
BBX 21 25 2 0
BITMAP
0000C0
0000C0
0001C0
000180
7E0380
830700
830700
830E00
830C00
831C00
833800
7E3800
007000
0061F0
00E208
00C208
01C208
038208
030208
070208
0601F0
0E0000
1C0000
1C0000
180000
ENDCHAR
STARTCHAR $0026
ENCODING 38
SWIDTH 2353 0
DWIDTH 85 0
BBX 80 25 2 0
BITMAP
3FF00000000000000000
3FF00000000000000000
C0000000000000000000
C0000000000000000000
C0000000000000000000
C0000000000000000000
C0000000000000000000
C0000000000000000000
C0000000000000000000
C0000000000000000000
C0000000000000000000
3FF01FF00FF807FC01FF
3FF01FF00FF807FC01FF
C0006000300018030600
C0006000300038030600
C0006000300038030600
C0006000300038030600
C0006000300038030600
C0006000300038030600
C0006000300038030600
C0006000300038030600
C0006000300038030600
C0006000300018030600
3FF06000300007FC0600
3FF06000200007FC0600
ENDCHAR
STARTCHAR $0028
ENCODING 40
SWIDTH 387 0
DWIDTH 14 0
BBX 9 25 2 0
BITMAP
3F80
3F80
C000
C000
C000
C000
C000
C000
C000
C000
C000
4000
0000
4000
C000
C000
C000
C000
C000
C000
C000
C000
C000
3F80
3F80
ENDCHAR
STARTCHAR $0029
ENCODING 41
SWIDTH 387 0
DWIDTH 14 0
BBX 9 25 3 0
BITMAP
FC00
FC00
0300
0380
0380
0380
0380
0380
0380
0380
0380
0100
0000
0100
0380
0380
0380
0380
0380
0380
0380
0380
0300
FC00
FC00
ENDCHAR
STARTCHAR $002A
ENCODING 42
SWIDTH 415 0
DWIDTH 15 0
BBX 11 12 2 18
BITMAP
0400
0E00
4E00
FFE0
7FC0
3F00
3F80
7FC0
EEE0
0E00
0E00
0400
ENDCHAR
STARTCHAR $002B
ENCODING 43
SWIDTH 664 0
DWIDTH 24 0
BBX 18 18 3 2
BITMAP
00C000
00C000
00C000
00C000
00C000
00C000
00C000
00C000
FF3FC0
FF3FC0
00C000
00C000
00C000
00C000
00C000
00C000
00C000
00C000
ENDCHAR
STARTCHAR $002C
ENCODING 44
SWIDTH 221 0
DWIDTH 8 0
BBX 4 4 2 0
BITMAP
30
70
E0
C0
ENDCHAR
STARTCHAR $002D
ENCODING 45
SWIDTH 415 0
DWIDTH 15 0
BBX 9 2 3 11
BITMAP
FF80
FF80
ENDCHAR
STARTCHAR $002E
ENCODING 46
SWIDTH 193 0
DWIDTH 7 0
BBX 2 3 2 0
BITMAP
40
C0
40
ENDCHAR
STARTCHAR $002F
ENCODING 47
SWIDTH 553 0
DWIDTH 20 0
BBX 15 25 2 0
BITMAP
0002
0006
000E
000C
001C
0038
0038
0070
0060
00E0
00C0
00C0
0000
0300
0700
0600
0E00
0C00
1C00
3800
3800
7000
6000
E000
C000
ENDCHAR
STARTCHAR $0030
ENCODING 48
SWIDTH 472 0
DWIDTH 17 0
BBX 14 25 2 0
BITMAP
3FF0
3FF0
C00C
C00C
C00C
C00C
C00C
C00C
C00C
C00C
C00C
4008
0000
4008
C00C
C00C
C00C
C00C
C00C
C00C
C00C
C00C
C00C
3FF0
3FF0
ENDCHAR
STARTCHAR $0031
ENCODING 49
SWIDTH 472 0
DWIDTH 17 0
BBX 13 25 2 0
BITMAP
0008
0018
0018
0018
0018
0018
0018
0018
0018
0018
0018
0008
0000
0008
0018
0018
0018
0018
0018
0018
0018
0018
8018
0018
0008
ENDCHAR
STARTCHAR $0032
ENCODING 50
SWIDTH 472 0
DWIDTH 17 0
BBX 14 25 2 0
BITMAP
3FF0
3FF0
000C
000C
000C
000C
000C
000C
000C
000C
000C
3FF0
3FF0
C000
C000
C000
C000
C000
C000
C000
C000
C000
C000
3FF0
3FF0
ENDCHAR
STARTCHAR $0033
ENCODING 51
SWIDTH 472 0
DWIDTH 17 0
BBX 14 25 2 0
BITMAP
1FF0
1FF0
000C
000C
000C
000C
000C
000C
000C
000C
000C
1FF0
1FF0
000C
000C
000C
000C
000C
000C
000C
000C
000C
800C
1FF0
1FF0
ENDCHAR
STARTCHAR $0034
ENCODING 52
SWIDTH 472 0
DWIDTH 17 0
BBX 14 25 2 0
BITMAP
4008
C00C
C00C
C00C
C00C
C00C
C00C
C00C
C00C
C00C
C00C
3FF0
3FF0
000C
000C
000C
000C
000C
000C
000C
000C
000C
000C
000C
0008
ENDCHAR
STARTCHAR $0035
ENCODING 53
SWIDTH 472 0
DWIDTH 17 0
BBX 14 25 2 0
BITMAP
3FF0
3FF0
C000
C000
C000
C000
C000
C000
C000
C000
C000
3FF0
3FF0
000C
000C
000C
000C
000C
000C
000C
000C
000C
000C
3FF0
3FF0
ENDCHAR
STARTCHAR $0036
ENCODING 54
SWIDTH 472 0
DWIDTH 17 0
BBX 14 25 2 0
BITMAP
3FF0
3FF0
C000
C000
C000
C000
C000
C000
C000
C000
C000
3FF0
3FF0
C00C
C00C
C00C
C00C
C00C
C00C
C00C
C00C
C00C
C00C
3FF0
3FF0
ENDCHAR
STARTCHAR $0037
ENCODING 55
SWIDTH 472 0
DWIDTH 17 0
BBX 14 25 2 0
BITMAP
1FF0
1FF0
000C
000C
000C
000C
000C
000C
000C
000C
000C
0000
0000
000C
000C
000C
000C
000C
000C
000C
000C
000C
800C
000C
0004
ENDCHAR
STARTCHAR $0038
ENCODING 56
SWIDTH 472 0
DWIDTH 17 0
BBX 14 25 2 0
BITMAP
3FF0
3FF0
C00C
C00C
C00C
C00C
C00C
C00C
C00C
C00C
C00C
3FF0
3FF0
C00C
C00C
C00C
C00C
C00C
C00C
C00C
C00C
C00C
C00C
3FF0
3FF0
ENDCHAR
STARTCHAR $0039
ENCODING 57
SWIDTH 472 0
DWIDTH 17 0
BBX 14 25 2 0
BITMAP
3FF0
3FF0
C00C
C00C
C00C
C00C
C00C
C00C
C00C
C00C
C00C
3FF0
3FF0
000C
000C
000C
000C
000C
000C
000C
000C
000C
000C
3FF0
3FF0
ENDCHAR
STARTCHAR $003A
ENCODING 58
SWIDTH 193 0
DWIDTH 7 0
BBX 2 10 2 0
BITMAP
40
C0
C0
00
00
00
00
C0
C0
40
ENDCHAR
STARTCHAR $003C
ENCODING 60
SWIDTH 276 0
DWIDTH 10 0
BBX 6 25 2 0
BITMAP
0C
0C
1C
18
18
38
30
70
60
60
E0
40
00
40
E0
60
60
70
30
38
18
18
1C
0C
0C
ENDCHAR
STARTCHAR $003D
ENCODING 61
SWIDTH 553 0
DWIDTH 20 0
BBX 14 8 3 6
BITMAP
FFFC
FFFC
0000
0000
0000
0000
FFFC
FFFC
ENDCHAR
STARTCHAR $003E
ENCODING 62
SWIDTH 276 0
DWIDTH 10 0
BBX 6 25 2 0
BITMAP
40
E0
60
60
70
30
38
18
18
1C
0C
0C
00
0C
0C
1C
18
18
38
30
70
60
60
E0
40
ENDCHAR
STARTCHAR $003F
ENCODING 63
SWIDTH 498 0
DWIDTH 18 0
BBX 14 25 2 0
BITMAP
3FF0
3FF0
000C
000C
000C
000C
000C
000C
000C
000C
000C
000C
3FF0
3FF0
C000
C000
C000
C000
C000
C000
4000
0000
C000
C000
4000
ENDCHAR
STARTCHAR $0040
ENCODING 64
SWIDTH 498 0
DWIDTH 18 0
BBX 14 25 2 0
BITMAP
3FF0
3FF0
C00C
C00C
C00C
C00C
C1EC
C1EC
CC0C
CE0C
CE0C
4E08
0E00
4E08
CE0C
CE0C
CE0C
C1F0
C1F0
C000
C000
C000
C000
3FF0
3FF0
ENDCHAR
STARTCHAR $0041
ENCODING 65
SWIDTH 498 0
DWIDTH 18 0
BBX 14 25 2 0
BITMAP
3FF0
3FF0
C00C
C00C
C00C
C00C
C00C
C00C
C00C
C00C
C00C
C00C
3FF0
3FF0
C00C
C00C
C00C
C00C
C00C
C00C
C00C
C00C
C00C
C00C
4008
ENDCHAR
STARTCHAR $0042
ENCODING 66
SWIDTH 498 0
DWIDTH 18 0
BBX 14 25 2 0
BITMAP
7FF0
BFF0
C00C
C00C
C00C
C00C
C00C
C00C
C00C
C00C
C00C
3FF0
3FF0
C00C
C00C
C00C
C00C
C00C
C00C
C00C
C00C
C00C
C00C
BFF0
7FF0
ENDCHAR
STARTCHAR $0043
ENCODING 67
SWIDTH 443 0
DWIDTH 16 0
BBX 12 25 2 0
BITMAP
3FF0
3FF0
C000
C000
C000
C000
C000
C000
C000
C000
C000
4000
0000
4000
C000
C000
C000
C000
C000
C000
C000
C000
C000
3FF0
3FF0
ENDCHAR
STARTCHAR $0044
ENCODING 68
SWIDTH 498 0
DWIDTH 18 0
BBX 14 25 2 0
BITMAP
7FF0
BFF0
C00C
C00C
C00C
C00C
C00C
C00C
C00C
C00C
C00C
4008
0000
4008
C00C
C00C
C00C
C00C
C00C
C00C
C00C
C00C
C00C
BFF0
7FF0
ENDCHAR
STARTCHAR $0045
ENCODING 69
SWIDTH 443 0
DWIDTH 16 0
BBX 12 25 2 0
BITMAP
3FF0
3FF0
C000
C000
C000
C000
C000
C000
C000
C000
C000
3FF0
3FF0
C000
C000
C000
C000
C000
C000
C000
C000
C000
C000
3FF0
3FF0
ENDCHAR
STARTCHAR $0046
ENCODING 70
SWIDTH 443 0
DWIDTH 16 0
BBX 12 25 2 0
BITMAP
3FF0
3FF0
C000
C000
C000
C000
C000
C000
C000
C000
C000
3FF0
3FF0
C000
C000
C000
C000
C000
C000
C000
C000
C000
C000
C000
4000
ENDCHAR
STARTCHAR $0047
ENCODING 71
SWIDTH 498 0
DWIDTH 18 0
BBX 14 25 2 0
BITMAP
3FF0
3FF0
C000
C000
C000
C000
C000
C000
C000
C000
C000
07F0
07F0
C00C
C00C
C00C
C00C
C00C
C00C
C00C
C00C
C00C
C00C
3FF0
3FF0
ENDCHAR
STARTCHAR $0048
ENCODING 72
SWIDTH 498 0
DWIDTH 18 0
BBX 14 25 2 0
BITMAP
4008
C00C
C00C
C00C
C00C
C00C
C00C
C00C
C00C
C00C
C00C
C00C
3FF0
3FF0
C00C
C00C
C00C
C00C
C00C
C00C
C00C
C00C
C00C
C00C
4008
ENDCHAR
STARTCHAR $0049
ENCODING 73
SWIDTH 193 0
DWIDTH 7 0
BBX 2 25 2 0
BITMAP
40
C0
C0
C0
C0
C0
C0
C0
C0
C0
C0
40
00
40
C0
C0
C0
C0
C0
C0
C0
C0
C0
C0
40
ENDCHAR
STARTCHAR $004A
ENCODING 74
SWIDTH 498 0
DWIDTH 18 0
BBX 14 25 2 0
BITMAP
0008
000C
000C
000C
000C
000C
000C
000C
000C
000C
000C
0008
0000
4008
C00C
C00C
C00C
C00C
C00C
C00C
C00C
C00C
C00C
3FF0
3FF0
ENDCHAR
STARTCHAR $004B
ENCODING 75
SWIDTH 498 0
DWIDTH 18 0
BBX 14 25 2 0
BITMAP
400C
C01C
C038
C070
C0E0
C1C0
C380
CF00
DE00
DC00
C000
3FF0
3FF0
C00C
C00C
C00C
C00C
C00C
C00C
C00C
C00C
C00C
C00C
C00C
4008
ENDCHAR
STARTCHAR $004C
ENCODING 76
SWIDTH 443 0
DWIDTH 16 0
BBX 12 25 2 0
BITMAP
4000
C000
C000
C000
C000
C000
C000
C000
C000
C000
C000
4000
0000
4000
C000
C000
C000
C000
C000
C000
C000
C000
C000
3FF0
3FF0
ENDCHAR
STARTCHAR $004D
ENCODING 77
SWIDTH 692 0
DWIDTH 25 0
BBX 20 25 2 0
BITMAP
3F9FC0
3F9FC0
C06030
C06030
C06030
C06030
C06030
C06030
C06030
C06030
C06030
402010
000000
400010
C00030
C00030
C00030
C00030
C00030
C00030
C00030
C00030
C00030
C00030
400010
ENDCHAR
STARTCHAR $004E
ENCODING 78
SWIDTH 498 0
DWIDTH 18 0
BBX 14 25 2 0
BITMAP
3FF0
3FF0
C00C
C00C
C00C
C00C
C00C
C00C
C00C
C00C
C00C
4008
0000
4008
C00C
C00C
C00C
C00C
C00C
C00C
C00C
C00C
C00C
C00C
4008
ENDCHAR
STARTCHAR $004F
ENCODING 79
SWIDTH 498 0
DWIDTH 18 0
BBX 14 25 2 0
BITMAP
3FF0
3FF0
C00C
C00C
C00C
C00C
C00C
C00C
C00C
C00C
C00C
4008
0000
4008
C00C
C00C
C00C
C00C
C00C
C00C
C00C
C00C
C00C
3FF0
3FF0
ENDCHAR
STARTCHAR $0050
ENCODING 80
SWIDTH 498 0
DWIDTH 18 0
BBX 14 25 2 0
BITMAP
3FF0
3FF0
C00C
C00C
C00C
C00C
C00C
C00C
C00C
C00C
C00C
3FF0
3FF0
C000
C000
C000
C000
C000
C000
C000
C000
C000
C000
C000
4000
ENDCHAR
STARTCHAR $0051
ENCODING 81
SWIDTH 498 0
DWIDTH 18 0
BBX 14 25 2 0
BITMAP
3FF0
3FF0
C00C
C00C
C00C
C00C
C00C
C00C
C00C
C00C
C00C
4008
0000
4008
C00C
C00C
C00C
C00C
C00C
C00C
C008
C030
C038
3FDC
3FC0
ENDCHAR
STARTCHAR $0052
ENCODING 82
SWIDTH 498 0
DWIDTH 18 0
BBX 14 25 2 0
BITMAP
3FF0
3FF0
C00C
C00C
C00C
C00C
C00C
C00C
C00C
C00C
C00C
3FF0
3FF0
C000
DC00
DC00
CE00
C700
C380
C1C0
C0E0
C070
C038
C01C
400C
ENDCHAR
STARTCHAR $0053
ENCODING 83
SWIDTH 498 0
DWIDTH 18 0
BBX 14 25 2 0
BITMAP
3FF0
3FF0
C000
C000
C000
C000
C000
C000
C000
C000
C000
3FF0
3FF0
000C
000C
000C
000C
000C
000C
000C
000C
000C
000C
3FF0
3FF0
ENDCHAR
STARTCHAR $0054
ENCODING 84
SWIDTH 581 0
DWIDTH 21 0
BBX 15 25 3 0
BITMAP
FC7E
FC7E
0380
0380
0380
0380
0380
0380
0380
0380
0380
0100
0000
0100
0380
0380
0380
0380
0380
0380
0380
0380
0380
0380
0100
ENDCHAR
STARTCHAR $0055
ENCODING 85
SWIDTH 498 0
DWIDTH 18 0
BBX 14 25 2 0
BITMAP
4008
C00C
C00C
C00C
C00C
C00C
C00C
C00C
C00C
C00C
C00C
4008
0000
4008
C00C
C00C
C00C
C00C
C00C
C00C
C00C
C00C
C00C
3FF0
3FF0
ENDCHAR
STARTCHAR $0056
ENCODING 86
SWIDTH 498 0
DWIDTH 18 0
BBX 14 25 2 0
BITMAP
4008
C00C
C00C
C00C
C00C
C00C
C00C
C00C
C00C
C00C
C00C
4008
0000
400C
E01C
6018
6018
7038
3030
3870
1860
1860
1CE0
0CC0
0CC0
ENDCHAR
STARTCHAR $0057
ENCODING 87
SWIDTH 692 0
DWIDTH 25 0
BBX 20 25 2 0
BITMAP
400010
C00030
C00030
C00030
C00030
C00030
C00030
C00030
C00030
C00030
C00030
400010
000000
402010
C06030
C06030
C06030
C06030
C06030
C06030
C06030
C06030
C06030
3F9FC0
3F9FC0
ENDCHAR
STARTCHAR $0058
ENCODING 88
SWIDTH 498 0
DWIDTH 18 0
BBX 14 25 2 0
BITMAP
4008
E01C
601C
6018
7038
3030
3870
1870
1860
1CE0
0CC0
0CC0
0000
0CC0
0CC0
1CE0
1860
1870
3870
3030
7038
6018
601C
E01C
4008
ENDCHAR
STARTCHAR $0059
ENCODING 89
SWIDTH 498 0
DWIDTH 18 0
BBX 14 25 2 0
BITMAP
4008
C00C
C00C
C00C
C00C
C00C
C00C
C00C
C00C
C00C
C00C
3FF0
3FF0
000C
000C
000C
000C
000C
000C
000C
000C
000C
000C
3FF0
3FF0
ENDCHAR
STARTCHAR $005A
ENCODING 90
SWIDTH 498 0
DWIDTH 18 0
BBX 12 25 3 0
BITMAP
FFC0
FFC0
0030
0030
0070
0060
00E0
01C0
01C0
0380
0300
0300
0000
0C00
1C00
1C00
3800
3000
7000
6000
E000
C000
8000
3FF0
3FF0
ENDCHAR
STARTCHAR $005B
ENCODING 91
SWIDTH 387 0
DWIDTH 14 0
BBX 9 25 2 0
BITMAP
7F80
BF80
C000
C000
C000
C000
C000
C000
C000
C000
C000
4000
0000
4000
C000
C000
C000
C000
C000
C000
C000
C000
C000
BF80
7F80
ENDCHAR
STARTCHAR $005C
ENCODING 92
SWIDTH 553 0
DWIDTH 20 0
BBX 15 25 2 0
BITMAP
C000
E000
6000
7000
3000
3800
1C00
1C00
0E00
0600
0700
0300
0000
00C0
00C0
00E0
0060
0070
0030
0038
001C
000C
000E
0006
0006
ENDCHAR
STARTCHAR $005D
ENCODING 93
SWIDTH 387 0
DWIDTH 14 0
BBX 9 25 3 0
BITMAP
FE80
FD80
0380
0380
0380
0380
0380
0380
0380
0380
0380
0100
0000
0100
0380
0380
0380
0380
0380
0380
0380
0380
0380
FD80
FE00
ENDCHAR
STARTCHAR $005E
ENCODING 94
SWIDTH 830 0
DWIDTH 30 0
BBX 25 6 2 11
BITMAP
00330000
01F3E000
0FE1F800
3F007F00
7C000F80
E0000180
ENDCHAR
STARTCHAR $005F
ENCODING 95
SWIDTH 609 0
DWIDTH 22 0
BBX 17 2 3 0
BITMAP
FFFF80
FFFF80
ENDCHAR
STARTCHAR $0061
ENCODING 97
SWIDTH 498 0
DWIDTH 18 0
BBX 14 25 2 0
BITMAP
3FF0
3FF0
C00C
C00C
C00C
C00C
C00C
C00C
C00C
C00C
C00C
C00C
3FF0
3FF0
C00C
C00C
C00C
C00C
C00C
C00C
C00C
C00C
C00C
C00C
4008
ENDCHAR
STARTCHAR $0062
ENCODING 98
SWIDTH 498 0
DWIDTH 18 0
BBX 14 25 2 0
BITMAP
7FF0
BFF0
C00C
C00C
C00C
C00C
C00C
C00C
C00C
C00C
C00C
3FF0
3FF0
C00C
C00C
C00C
C00C
C00C
C00C
C00C
C00C
C00C
C00C
BFF0
7FF0
ENDCHAR
STARTCHAR $0063
ENCODING 99
SWIDTH 443 0
DWIDTH 16 0
BBX 12 25 2 0
BITMAP
3FF0
3FF0
C000
C000
C000
C000
C000
C000
C000
C000
C000
4000
0000
4000
C000
C000
C000
C000
C000
C000
C000
C000
C000
3FF0
3FF0
ENDCHAR
STARTCHAR $0064
ENCODING 100
SWIDTH 498 0
DWIDTH 18 0
BBX 14 25 2 0
BITMAP
7FF0
BFF0
C00C
C00C
C00C
C00C
C00C
C00C
C00C
C00C
C00C
4008
0000
4008
C00C
C00C
C00C
C00C
C00C
C00C
C00C
C00C
C00C
BFF0
7FF0
ENDCHAR
STARTCHAR $0065
ENCODING 101
SWIDTH 443 0
DWIDTH 16 0
BBX 12 25 2 0
BITMAP
3FF0
3FF0
C000
C000
C000
C000
C000
C000
C000
C000
C000
3FF0
3FF0
C000
C000
C000
C000
C000
C000
C000
C000
C000
C000
3FF0
3FF0
ENDCHAR
STARTCHAR $0066
ENCODING 102
SWIDTH 443 0
DWIDTH 16 0
BBX 12 25 2 0
BITMAP
3FF0
3FF0
C000
C000
C000
C000
C000
C000
C000
C000
C000
3FF0
3FF0
C000
C000
C000
C000
C000
C000
C000
C000
C000
C000
C000
4000
ENDCHAR
STARTCHAR $0067
ENCODING 103
SWIDTH 498 0
DWIDTH 18 0
BBX 14 25 2 0
BITMAP
3FF0
3FF0
C000
C000
C000
C000
C000
C000
C000
C000
C000
07F0
07F0
C00C
C00C
C00C
C00C
C00C
C00C
C00C
C00C
C00C
C00C
3FF0
3FF0
ENDCHAR
STARTCHAR $0068
ENCODING 104
SWIDTH 498 0
DWIDTH 18 0
BBX 14 25 2 0
BITMAP
4008
C00C
C00C
C00C
C00C
C00C
C00C
C00C
C00C
C00C
C00C
C00C
3FF0
3FF0
C00C
C00C
C00C
C00C
C00C
C00C
C00C
C00C
C00C
C00C
4008
ENDCHAR
STARTCHAR $0069
ENCODING 105
SWIDTH 193 0
DWIDTH 7 0
BBX 2 25 2 0
BITMAP
40
C0
C0
C0
C0
C0
C0
C0
C0
C0
C0
40
00
40
C0
C0
C0
C0
C0
C0
C0
C0
C0
C0
40
ENDCHAR
STARTCHAR $006A
ENCODING 106
SWIDTH 498 0
DWIDTH 18 0
BBX 14 25 2 0
BITMAP
0008
000C
000C
000C
000C
000C
000C
000C
000C
000C
000C
0008
0000
4008
C00C
C00C
C00C
C00C
C00C
C00C
C00C
C00C
C00C
3FF0
3FF0
ENDCHAR
STARTCHAR $006B
ENCODING 107
SWIDTH 498 0
DWIDTH 18 0
BBX 14 25 2 0
BITMAP
400C
C01C
C038
C070
C0E0
C1C0
C380
CF00
DE00
DC00
C000
3FF0
3FF0
C00C
C00C
C00C
C00C
C00C
C00C
C00C
C00C
C00C
C00C
C00C
4008
ENDCHAR
STARTCHAR $006C
ENCODING 108
SWIDTH 443 0
DWIDTH 16 0
BBX 12 25 2 0
BITMAP
4000
C000
C000
C000
C000
C000
C000
C000
C000
C000
C000
4000
0000
4000
C000
C000
C000
C000
C000
C000
C000
C000
C000
3FF0
3FF0
ENDCHAR
STARTCHAR $006D
ENCODING 109
SWIDTH 692 0
DWIDTH 25 0
BBX 20 25 2 0
BITMAP
3F9FC0
3F9FC0
C06030
C06030
C06030
C06030
C06030
C06030
C06030
C06030
C06030
402010
000000
400010
C00030
C00030
C00030
C00030
C00030
C00030
C00030
C00030
C00030
C00030
400010
ENDCHAR
STARTCHAR $006E
ENCODING 110
SWIDTH 498 0
DWIDTH 18 0
BBX 14 25 2 0
BITMAP
3FF0
3FF0
C00C
C00C
C00C
C00C
C00C
C00C
C00C
C00C
C00C
4008
0000
4008
C00C
C00C
C00C
C00C
C00C
C00C
C00C
C00C
C00C
C00C
4008
ENDCHAR
STARTCHAR $006F
ENCODING 111
SWIDTH 498 0
DWIDTH 18 0
BBX 14 25 2 0
BITMAP
3FF0
3FF0
C00C
C00C
C00C
C00C
C00C
C00C
C00C
C00C
C00C
4008
0000
4008
C00C
C00C
C00C
C00C
C00C
C00C
C00C
C00C
C00C
3FF0
3FF0
ENDCHAR
STARTCHAR $0070
ENCODING 112
SWIDTH 498 0
DWIDTH 18 0
BBX 14 25 2 0
BITMAP
3FF0
3FF0
C00C
C00C
C00C
C00C
C00C
C00C
C00C
C00C
C00C
3FF0
3FF0
C000
C000
C000
C000
C000
C000
C000
C000
C000
C000
C000
4000
ENDCHAR
STARTCHAR $0071
ENCODING 113
SWIDTH 498 0
DWIDTH 18 0
BBX 14 25 2 0
BITMAP
3FF0
3FF0
C00C
C00C
C00C
C00C
C00C
C00C
C00C
C00C
C00C
4008
0000
4008
C00C
C00C
C00C
C00C
C00C
C00C
C008
C030
C038
3FDC
3FC0
ENDCHAR
STARTCHAR $0072
ENCODING 114
SWIDTH 498 0
DWIDTH 18 0
BBX 14 25 2 0
BITMAP
3FF0
3FF0
C00C
C00C
C00C
C00C
C00C
C00C
C00C
C00C
C00C
3FF0
3FF0
C000
DC00
DC00
CE00
C700
C380
C1C0
C0E0
C070
C038
C01C
400C
ENDCHAR
STARTCHAR $0073
ENCODING 115
SWIDTH 498 0
DWIDTH 18 0
BBX 14 25 2 0
BITMAP
3FF0
3FF0
C000
C000
C000
C000
C000
C000
C000
C000
C000
3FF0
3FF0
000C
000C
000C
000C
000C
000C
000C
000C
000C
000C
3FF0
3FF0
ENDCHAR
STARTCHAR $0074
ENCODING 116
SWIDTH 581 0
DWIDTH 21 0
BBX 15 25 3 0
BITMAP
FC7E
FC7E
0380
0380
0380
0380
0380
0380
0380
0380
0380
0100
0000
0100
0380
0380
0380
0380
0380
0380
0380
0380
0380
0380
0100
ENDCHAR
STARTCHAR $0075
ENCODING 117
SWIDTH 498 0
DWIDTH 18 0
BBX 14 25 2 0
BITMAP
4008
C00C
C00C
C00C
C00C
C00C
C00C
C00C
C00C
C00C
C00C
4008
0000
4008
C00C
C00C
C00C
C00C
C00C
C00C
C00C
C00C
C00C
3FF0
3FF0
ENDCHAR
STARTCHAR $0076
ENCODING 118
SWIDTH 498 0
DWIDTH 18 0
BBX 14 25 2 0
BITMAP
4008
C00C
C00C
C00C
C00C
C00C
C00C
C00C
C00C
C00C
C00C
4008
0000
400C
E01C
6018
6018
7038
3030
3870
1860
1860
1CE0
0CC0
0CC0
ENDCHAR
STARTCHAR $0077
ENCODING 119
SWIDTH 692 0
DWIDTH 25 0
BBX 20 25 2 0
BITMAP
400010
C00030
C00030
C00030
C00030
C00030
C00030
C00030
C00030
C00030
C00030
400010
000000
402010
C06030
C06030
C06030
C06030
C06030
C06030
C06030
C06030
C06030
3F9FC0
3F9FC0
ENDCHAR
STARTCHAR $0078
ENCODING 120
SWIDTH 498 0
DWIDTH 18 0
BBX 14 25 2 0
BITMAP
4008
E01C
601C
6018
7038
3030
3870
1870
1860
1CE0
0CC0
0CC0
0000
0CC0
0CC0
1CE0
1860
1870
3870
3030
7038
6018
601C
E01C
4008
ENDCHAR
STARTCHAR $0079
ENCODING 121
SWIDTH 498 0
DWIDTH 18 0
BBX 14 25 2 0
BITMAP
4008
C00C
C00C
C00C
C00C
C00C
C00C
C00C
C00C
C00C
C00C
3FF0
3FF0
000C
000C
000C
000C
000C
000C
000C
000C
000C
000C
3FF0
3FF0
ENDCHAR
STARTCHAR $007A
ENCODING 122
SWIDTH 498 0
DWIDTH 18 0
BBX 12 25 3 0
BITMAP
FFC0
FFC0
0030
0030
0070
0060
00E0
01C0
01C0
0380
0300
0300
0000
0C00
1C00
1C00
3800
3000
7000
6000
E000
C000
8000
3FF0
3FF0
ENDCHAR
STARTCHAR $007B
ENCODING 123
SWIDTH 470 0
DWIDTH 17 0
BBX 12 25 3 0
BITMAP
07F0
07F0
1800
1800
1800
1800
1800
1800
1800
1800
1800
1800
E000
E000
1800
1800
1800
1800
1800
1800
1800
1800
1800
07F0
07F0
ENDCHAR
STARTCHAR $007C
ENCODING 124
SWIDTH 193 0
DWIDTH 7 0
BBX 2 28 2 0
BITMAP
40
C0
C0
C0
C0
C0
C0
C0
C0
C0
C0
C0
C0
C0
C0
C0
C0
C0
C0
C0
C0
C0
C0
C0
C0
C0
C0
40
ENDCHAR
STARTCHAR $007D
ENCODING 125
SWIDTH 470 0
DWIDTH 17 0
BBX 12 25 3 0
BITMAP
FC00
FC00
0300
0380
0380
0380
0380
0380
0380
0380
0380
0300
0070
00F0
0300
0380
0380
0380
0380
0380
0380
0380
0300
FC00
FC00
ENDCHAR
STARTCHAR $00A0
ENCODING 160
SWIDTH 720 0
DWIDTH 26 0
BBX 0 0 0 0
BITMAP
ENDCHAR
STARTCHAR $00A9
ENCODING 169
SWIDTH 498 0
DWIDTH 18 0
BBX 14 15 2 0
BITMAP
3FF0
3FF0
C00C
C00C
C7CC
C80C
C80C
C80C
C80C
C80C
C7CC
C00C
C00C
3FF0
3FF0
ENDCHAR
STARTCHAR $00AB
ENCODING 171
SWIDTH 443 0
DWIDTH 16 0
BBX 12 25 2 0
BITMAP
0C30
0C30
1C70
1860
18E0
38C0
30C0
71C0
6180
6380
E300
4300
0000
4300
E300
6380
6180
71C0
30C0
38C0
18E0
1860
1C70
0C30
0C30
ENDCHAR
STARTCHAR $00AD
ENCODING 173
SWIDTH 0 0
DWIDTH 0 0
BBX 0 0 0 0
BITMAP
ENDCHAR
STARTCHAR $00BB
ENCODING 187
SWIDTH 443 0
DWIDTH 16 0
BBX 12 25 2 0
BITMAP
4300
E300
6380
6180
71C0
30C0
38C0
18E0
1860
1C70
0C30
0C30
0000
0C30
0C30
1C70
1860
18E0
38C0
30C0
71C0
6180
6380
E300
4300
ENDCHAR
STARTCHAR $00C0
ENCODING 192
SWIDTH 498 0
DWIDTH 18 0
BBX 14 25 2 0
BITMAP
3FF0
3FF0
C00C
C00C
C00C
C00C
C00C
C00C
C00C
C00C
C00C
C00C
3FF0
3FF0
C00C
C00C
C00C
C00C
C00C
C00C
C00C
C00C
C00C
C00C
4008
ENDCHAR
STARTCHAR $00C1
ENCODING 193
SWIDTH 498 0
DWIDTH 18 0
BBX 14 31 2 0
BITMAP
00E0
01E0
03C0
0380
0300
0000
3FF0
3FF0
C00C
C00C
C00C
C00C
C00C
C00C
C00C
C00C
C00C
C00C
3FF0
3FF0
C00C
C00C
C00C
C00C
C00C
C00C
C00C
C00C
C00C
C00C
4008
ENDCHAR
STARTCHAR $00C2
ENCODING 194
SWIDTH 498 0
DWIDTH 18 0
BBX 14 25 2 0
BITMAP
3FF0
3FF0
C00C
C00C
C00C
C00C
C00C
C00C
C00C
C00C
C00C
C00C
3FF0
3FF0
C00C
C00C
C00C
C00C
C00C
C00C
C00C
C00C
C00C
C00C
4008
ENDCHAR
STARTCHAR $00C3
ENCODING 195
SWIDTH 498 0
DWIDTH 18 0
BBX 14 25 2 0
BITMAP
3FF0
3FF0
C00C
C00C
C00C
C00C
C00C
C00C
C00C
C00C
C00C
C00C
3FF0
3FF0
C00C
C00C
C00C
C00C
C00C
C00C
C00C
C00C
C00C
C00C
4008
ENDCHAR
STARTCHAR $00C4
ENCODING 196
SWIDTH 498 0
DWIDTH 18 0
BBX 14 30 2 0
BITMAP
0800
1860
1860
0000
0000
3FF0
3FF0
C00C
C00C
C00C
C00C
C00C
C00C
C00C
C00C
C00C
C00C
3FF0
3FF0
C00C
C00C
C00C
C00C
C00C
C00C
C00C
C00C
C00C
C00C
4008
ENDCHAR
STARTCHAR $00C7
ENCODING 199
SWIDTH 443 0
DWIDTH 16 0
BBX 12 29 2 -5
BITMAP
3FF0
3FF0
C000
C000
C000
C000
C000
C000
C000
C000
C000
4000
0000
4000
C000
C000
C000
C000
C000
C000
C000
C000
C000
3FF0
3FF0
0000
0200
0600
0600
ENDCHAR
STARTCHAR $00C8
ENCODING 200
SWIDTH 443 0
DWIDTH 16 0
BBX 12 25 2 0
BITMAP
3FF0
3FF0
C000
C000
C000
C000
C000
C000
C000
C000
C000
3FF0
3FF0
C000
C000
C000
C000
C000
C000
C000
C000
C000
C000
3FF0
3FF0
ENDCHAR
STARTCHAR $00C9
ENCODING 201
SWIDTH 443 0
DWIDTH 16 0
BBX 12 31 2 0
BITMAP
00C0
01C0
0380
0700
0600
0000
3FF0
3FF0
C000
C000
C000
C000
C000
C000
C000
C000
C000
3FF0
3FF0
C000
C000
C000
C000
C000
C000
C000
C000
C000
C000
3FF0
3FF0
ENDCHAR
STARTCHAR $00CB
ENCODING 203
SWIDTH 443 0
DWIDTH 16 0
BBX 12 30 2 0
BITMAP
1000
30C0
30C0
1000
0000
3FF0
3FF0
C000
C000
C000
C000
C000
C000
C000
C000
C000
3FF0
3FF0
C000
C000
C000
C000
C000
C000
C000
C000
C000
C000
3FF0
3FF0
ENDCHAR
STARTCHAR $00CC
ENCODING 204
SWIDTH 193 0
DWIDTH 7 0
BBX 2 25 2 0
BITMAP
40
C0
C0
C0
C0
C0
C0
C0
C0
C0
C0
40
00
40
C0
C0
C0
C0
C0
C0
C0
C0
C0
C0
40
ENDCHAR
STARTCHAR $00CD
ENCODING 205
SWIDTH 193 0
DWIDTH 7 0
BBX 2 25 2 0
BITMAP
40
C0
C0
C0
C0
C0
C0
C0
C0
C0
C0
40
00
40
C0
C0
C0
C0
C0
C0
C0
C0
C0
C0
40
ENDCHAR
STARTCHAR $00CE
ENCODING 206
SWIDTH 193 0
DWIDTH 7 0
BBX 2 25 2 0
BITMAP
40
C0
C0
C0
C0
C0
C0
C0
C0
C0
C0
40
00
40
C0
C0
C0
C0
C0
C0
C0
C0
C0
C0
40
ENDCHAR
STARTCHAR $00D2
ENCODING 210
SWIDTH 498 0
DWIDTH 18 0
BBX 14 31 2 0
BITMAP
0180
0380
0700
0600
0400
0000
3FF0
3FF0
C00C
C00C
C00C
C00C
C00C
C00C
C00C
C00C
C00C
4008
0000
4008
C00C
C00C
C00C
C00C
C00C
C00C
C00C
C00C
C00C
3FF0
3FF0
ENDCHAR
STARTCHAR $00D3
ENCODING 211
SWIDTH 498 0
DWIDTH 18 0
BBX 14 25 2 0
BITMAP
3FF0
3FF0
C00C
C00C
C00C
C00C
C00C
C00C
C00C
C00C
C00C
4008
0000
4008
C00C
C00C
C00C
C00C
C00C
C00C
C00C
C00C
C00C
3FF0
3FF0
ENDCHAR
STARTCHAR $00D4
ENCODING 212
SWIDTH 498 0
DWIDTH 18 0
BBX 14 25 2 0
BITMAP
3FF0
3FF0
C00C
C00C
C00C
C00C
C00C
C00C
C00C
C00C
C00C
4008
0000
4008
C00C
C00C
C00C
C00C
C00C
C00C
C00C
C00C
C00C
3FF0
3FF0
ENDCHAR
STARTCHAR $00D5
ENCODING 213
SWIDTH 498 0
DWIDTH 18 0
BBX 14 25 2 0
BITMAP
3FF0
3FF0
C00C
C00C
C00C
C00C
C00C
C00C
C00C
C00C
C00C
4008
0000
4008
C00C
C00C
C00C
C00C
C00C
C00C
C00C
C00C
C00C
3FF0
3FF0
ENDCHAR
STARTCHAR $00D6
ENCODING 214
SWIDTH 498 0
DWIDTH 18 0
BBX 14 30 2 0
BITMAP
0840
1860
1860
0000
0000
3FF0
3FF0
C00C
C00C
C00C
C00C
C00C
C00C
C00C
C00C
C00C
4008
0000
4008
C00C
C00C
C00C
C00C
C00C
C00C
C00C
C00C
C00C
3FF0
3FF0
ENDCHAR
STARTCHAR $00D9
ENCODING 217
SWIDTH 498 0
DWIDTH 18 0
BBX 14 31 2 0
BITMAP
0180
0380
0700
0600
0400
0000
4008
C00C
C00C
C00C
C00C
C00C
C00C
C00C
C00C
C00C
C00C
4008
0000
4008
C00C
C00C
C00C
C00C
C00C
C00C
C00C
C00C
C00C
3FF0
3FF0
ENDCHAR
STARTCHAR $00DA
ENCODING 218
SWIDTH 498 0
DWIDTH 18 0
BBX 14 25 2 0
BITMAP
4008
C00C
C00C
C00C
C00C
C00C
C00C
C00C
C00C
C00C
C00C
4008
0000
4008
C00C
C00C
C00C
C00C
C00C
C00C
C00C
C00C
C00C
3FF0
3FF0
ENDCHAR
STARTCHAR $00DC
ENCODING 220
SWIDTH 498 0
DWIDTH 18 0
BBX 14 30 2 0
BITMAP
0840
1860
1860
0000
0000
4008
C00C
C00C
C00C
C00C
C00C
C00C
C00C
C00C
C00C
C00C
4008
0000
4008
C00C
C00C
C00C
C00C
C00C
C00C
C00C
C00C
C00C
3FF0
3FF0
ENDCHAR
STARTCHAR $00DF
ENCODING 223
SWIDTH 443 0
DWIDTH 16 0
BBX 11 25 3 0
BITMAP
FF80
FF80
0060
1060
3860
3860
3860
3860
3860
1060
0060
FF80
FF80
0060
1060
3860
3860
3860
3860
3860
3860
1060
0060
FF80
FF80
ENDCHAR
STARTCHAR $00E0
ENCODING 224
SWIDTH 498 0
DWIDTH 18 0
BBX 14 25 2 0
BITMAP
3FF0
3FF0
C00C
C00C
C00C
C00C
C00C
C00C
C00C
C00C
C00C
C00C
3FF0
3FF0
C00C
C00C
C00C
C00C
C00C
C00C
C00C
C00C
C00C
C00C
4008
ENDCHAR
STARTCHAR $00E1
ENCODING 225
SWIDTH 498 0
DWIDTH 18 0
BBX 14 25 2 0
BITMAP
3FF0
3FF0
C00C
C00C
C00C
C00C
C00C
C00C
C00C
C00C
C00C
C00C
3FF0
3FF0
C00C
C00C
C00C
C00C
C00C
C00C
C00C
C00C
C00C
C00C
4008
ENDCHAR
STARTCHAR $00E2
ENCODING 226
SWIDTH 498 0
DWIDTH 18 0
BBX 14 25 2 0
BITMAP
3FF0
3FF0
C00C
C00C
C00C
C00C
C00C
C00C
C00C
C00C
C00C
C00C
3FF0
3FF0
C00C
C00C
C00C
C00C
C00C
C00C
C00C
C00C
C00C
C00C
4008
ENDCHAR
STARTCHAR $00E3
ENCODING 227
SWIDTH 498 0
DWIDTH 18 0
BBX 14 25 2 0
BITMAP
3FF0
3FF0
C00C
C00C
C00C
C00C
C00C
C00C
C00C
C00C
C00C
C00C
3FF0
3FF0
C00C
C00C
C00C
C00C
C00C
C00C
C00C
C00C
C00C
C00C
4008
ENDCHAR
STARTCHAR $00E4
ENCODING 228
SWIDTH 498 0
DWIDTH 18 0
BBX 14 25 2 0
BITMAP
3FF0
3FF0
C00C
C00C
C00C
C00C
C00C
C00C
C00C
C00C
C00C
C00C
3FF0
3FF0
C00C
C00C
C00C
C00C
C00C
C00C
C00C
C00C
C00C
C00C
4008
ENDCHAR
STARTCHAR $00E7
ENCODING 231
SWIDTH 443 0
DWIDTH 16 0
BBX 12 29 2 -5
BITMAP
3FF0
3FF0
C000
C000
C000
C000
C000
C000
C000
C000
C000
4000
0000
4000
C000
C000
C000
C000
C000
C000
C000
C000
C000
3FF0
3FF0
0000
0200
0600
0600
ENDCHAR
STARTCHAR $00E8
ENCODING 232
SWIDTH 443 0
DWIDTH 16 0
BBX 12 25 2 0
BITMAP
3FF0
3FF0
C000
C000
C000
C000
C000
C000
C000
C000
C000
3FF0
3FF0
C000
C000
C000
C000
C000
C000
C000
C000
C000
C000
3FF0
3FF0
ENDCHAR
STARTCHAR $00E9
ENCODING 233
SWIDTH 443 0
DWIDTH 16 0
BBX 12 25 2 0
BITMAP
3FF0
3FF0
C000
C000
C000
C000
C000
C000
C000
C000
C000
3FF0
3FF0
C000
C000
C000
C000
C000
C000
C000
C000
C000
C000
3FF0
3FF0
ENDCHAR
STARTCHAR $00EA
ENCODING 234
SWIDTH 443 0
DWIDTH 16 0
BBX 12 25 2 0
BITMAP
3FF0
3FF0
C000
C000
C000
C000
C000
C000
C000
C000
C000
3FF0
3FF0
C000
C000
C000
C000
C000
C000
C000
C000
C000
C000
3FF0
3FF0
ENDCHAR
STARTCHAR $00EC
ENCODING 236
SWIDTH 193 0
DWIDTH 7 0
BBX 2 25 2 0
BITMAP
40
C0
C0
C0
C0
C0
C0
C0
C0
C0
C0
40
00
40
C0
C0
C0
C0
C0
C0
C0
C0
C0
C0
40
ENDCHAR
STARTCHAR $00ED
ENCODING 237
SWIDTH 193 0
DWIDTH 7 0
BBX 2 25 2 0
BITMAP
40
C0
C0
C0
C0
C0
C0
C0
C0
C0
C0
40
00
40
C0
C0
C0
C0
C0
C0
C0
C0
C0
C0
40
ENDCHAR
STARTCHAR $00EE
ENCODING 238
SWIDTH 193 0
DWIDTH 7 0
BBX 2 25 2 0
BITMAP
40
C0
C0
C0
C0
C0
C0
C0
C0
C0
C0
40
00
40
C0
C0
C0
C0
C0
C0
C0
C0
C0
C0
40
ENDCHAR
STARTCHAR $00F2
ENCODING 242
SWIDTH 498 0
DWIDTH 18 0
BBX 14 25 2 0
BITMAP
3FF0
3FF0
C00C
C00C
C00C
C00C
C00C
C00C
C00C
C00C
C00C
4008
0000
4008
C00C
C00C
C00C
C00C
C00C
C00C
C00C
C00C
C00C
3FF0
3FF0
ENDCHAR
STARTCHAR $00F3
ENCODING 243
SWIDTH 498 0
DWIDTH 18 0
BBX 14 25 2 0
BITMAP
3FF0
3FF0
C00C
C00C
C00C
C00C
C00C
C00C
C00C
C00C
C00C
4008
0000
4008
C00C
C00C
C00C
C00C
C00C
C00C
C00C
C00C
C00C
3FF0
3FF0
ENDCHAR
STARTCHAR $00F4
ENCODING 244
SWIDTH 498 0
DWIDTH 18 0
BBX 14 25 2 0
BITMAP
3FF0
3FF0
C00C
C00C
C00C
C00C
C00C
C00C
C00C
C00C
C00C
4008
0000
4008
C00C
C00C
C00C
C00C
C00C
C00C
C00C
C00C
C00C
3FF0
3FF0
ENDCHAR
STARTCHAR $00F5
ENCODING 245
SWIDTH 498 0
DWIDTH 18 0
BBX 14 25 2 0
BITMAP
3FF0
3FF0
C00C
C00C
C00C
C00C
C00C
C00C
C00C
C00C
C00C
4008
0000
4008
C00C
C00C
C00C
C00C
C00C
C00C
C00C
C00C
C00C
3FF0
3FF0
ENDCHAR
STARTCHAR $00F6
ENCODING 246
SWIDTH 498 0
DWIDTH 18 0
BBX 14 30 2 0
BITMAP
0840
1860
1860
0000
0000
3FF0
3FF0
C00C
C00C
C00C
C00C
C00C
C00C
C00C
C00C
C00C
4008
0000
4008
C00C
C00C
C00C
C00C
C00C
C00C
C00C
C00C
C00C
3FF0
3FF0
ENDCHAR
STARTCHAR $00F7
ENCODING 247
SWIDTH 553 0
DWIDTH 20 0
BBX 14 14 3 0
BITMAP
0200
0300
0300
0000
0000
0000
FFFC
FFFC
0000
0000
0000
0300
0300
0200
ENDCHAR
STARTCHAR $00F9
ENCODING 249
SWIDTH 498 0
DWIDTH 18 0
BBX 14 25 2 0
BITMAP
4008
C00C
C00C
C00C
C00C
C00C
C00C
C00C
C00C
C00C
C00C
4008
0000
4008
C00C
C00C
C00C
C00C
C00C
C00C
C00C
C00C
C00C
3FF0
3FF0
ENDCHAR
STARTCHAR $00FA
ENCODING 250
SWIDTH 498 0
DWIDTH 18 0
BBX 14 25 2 0
BITMAP
4008
C00C
C00C
C00C
C00C
C00C
C00C
C00C
C00C
C00C
C00C
4008
0000
4008
C00C
C00C
C00C
C00C
C00C
C00C
C00C
C00C
C00C
3FF0
3FF0
ENDCHAR
STARTCHAR $00FC
ENCODING 252
SWIDTH 498 0
DWIDTH 18 0
BBX 14 30 2 0
BITMAP
0840
1860
1860
0000
0000
4008
C00C
C00C
C00C
C00C
C00C
C00C
C00C
C00C
C00C
C00C
4008
0000
4008
C00C
C00C
C00C
C00C
C00C
C00C
C00C
C00C
C00C
3FF0
3FF0
ENDCHAR
STARTCHAR $00FD
ENCODING 253
SWIDTH 498 0
DWIDTH 18 0
BBX 14 25 2 0
BITMAP
4008
C00C
C00C
C00C
C00C
C00C
C00C
C00C
C00C
C00C
C00C
3FF0
3FF0
000C
000C
000C
000C
000C
000C
000C
000C
000C
000C
3FF0
3FF0
ENDCHAR
STARTCHAR $2000
ENCODING 8192
SWIDTH 443 0
DWIDTH 16 0
BBX 0 0 0 0
BITMAP
ENDCHAR
STARTCHAR $2001
ENCODING 8193
SWIDTH 858 0
DWIDTH 31 0
BBX 0 0 0 0
BITMAP
ENDCHAR
STARTCHAR $2002
ENCODING 8194
SWIDTH 443 0
DWIDTH 16 0
BBX 0 0 0 0
BITMAP
ENDCHAR
STARTCHAR $2003
ENCODING 8195
SWIDTH 858 0
DWIDTH 31 0
BBX 0 0 0 0
BITMAP
ENDCHAR
STARTCHAR $2004
ENCODING 8196
SWIDTH 276 0
DWIDTH 10 0
BBX 0 0 0 0
BITMAP
ENDCHAR
STARTCHAR $2005
ENCODING 8197
SWIDTH 221 0
DWIDTH 8 0
BBX 0 0 0 0
BITMAP
ENDCHAR
STARTCHAR $2006
ENCODING 8198
SWIDTH 138 0
DWIDTH 5 0
BBX 0 0 0 0
BITMAP
ENDCHAR
STARTCHAR $2007
ENCODING 8199
SWIDTH 138 0
DWIDTH 5 0
BBX 0 0 0 0
BITMAP
ENDCHAR
STARTCHAR $2008
ENCODING 8200
SWIDTH 110 0
DWIDTH 4 0
BBX 0 0 0 0
BITMAP
ENDCHAR
STARTCHAR $2009
ENCODING 8201
SWIDTH 166 0
DWIDTH 6 0
BBX 0 0 0 0
BITMAP
ENDCHAR
STARTCHAR $200A
ENCODING 8202
SWIDTH 55 0
DWIDTH 2 0
BBX 0 0 0 0
BITMAP
ENDCHAR
STARTCHAR $2010
ENCODING 8208
SWIDTH 415 0
DWIDTH 15 0
BBX 10 3 2 11
BITMAP
7FC0
FFC0
7F80
ENDCHAR
STARTCHAR $2011
ENCODING 8209
SWIDTH 415 0
DWIDTH 15 0
BBX 10 3 2 11
BITMAP
7FC0
FFC0
7F80
ENDCHAR
STARTCHAR $2012
ENCODING 8210
SWIDTH 415 0
DWIDTH 15 0
BBX 10 3 2 11
BITMAP
7FC0
FFC0
7F80
ENDCHAR
STARTCHAR $2013
ENCODING 8211
SWIDTH 609 0
DWIDTH 22 0
BBX 18 3 2 11
BITMAP
3FFF80
FFFFC0
3FFF00
ENDCHAR
STARTCHAR $2014
ENCODING 8212
SWIDTH 1107 0
DWIDTH 40 0
BBX 36 3 2 11
BITMAP
1FFFFFFF80
FFFFFFFFF0
0FFFFFFF00
ENDCHAR
STARTCHAR $2018
ENCODING 8216
SWIDTH 276 0
DWIDTH 10 0
BBX 6 8 2 -5
BITMAP
08
1C
38
38
70
60
E0
C0
ENDCHAR
STARTCHAR $201C
ENCODING 8220
SWIDTH 276 0
DWIDTH 10 0
BBX 6 3 2 22
BITMAP
48
CC
48
ENDCHAR
STARTCHAR $202F
ENCODING 8239
SWIDTH 166 0
DWIDTH 6 0
BBX 0 0 0 0
BITMAP
ENDCHAR
STARTCHAR $205F
ENCODING 8287
SWIDTH 221 0
DWIDTH 8 0
BBX 0 0 0 0
BITMAP
ENDCHAR
STARTCHAR $20AC
ENCODING 8364
SWIDTH 443 0
DWIDTH 16 0
BBX 12 25 2 0
BITMAP
3FF0
3FF0
C000
C000
C000
C000
CFC0
CFC0
C000
C000
C000
3FF0
3FF0
C000
C000
C000
C000
CFC0
CFC0
C000
C000
C000
C000
3FF0
3FF0
ENDCHAR
STARTCHAR $25FC
ENCODING 9724
SWIDTH 692 0
DWIDTH 25 0
BBX 25 25 0 0
BITMAP
FFFFFF80
FFFFFF80
FFFFFF80
FFFFFF80
FFFFFF80
FFFFFF80
FFFFFF80
FFFFFF80
FFFFFF80
FFFFFF80
FFFFFF80
FFFFFF80
FFFFFF80
FFFFFF80
FFFFFF80
FFFFFF80
FFFFFF80
FFFFFF80
FFFFFF80
FFFFFF80
FFFFFF80
FFFFFF80
FFFFFF80
FFFFFF80
FFFFFF80
ENDCHAR
ENDFONT
